<svg width="22" height="14" viewBox="0 0 22 14" fill="none" xmlns="http://www.w3.org/2000/svg">
<path d="M0.293 7.70704C0.105529 7.51951 0.000213623 7.26521 0.000213623 7.00004C0.000213623 6.73488 0.105529 6.48057 0.293 6.29304L6.293 0.293041C6.4816 0.110883 6.7342 0.0100885 6.9964 0.0123669C7.2586 0.0146453 7.50941 0.119815 7.69482 0.305223C7.88023 0.490631 7.9854 0.741443 7.98767 1.00364C7.98995 1.26584 7.88916 1.51844 7.707 1.70704L3.414 6.00004H21C21.2652 6.00004 21.5196 6.1054 21.7071 6.29294C21.8946 6.48047 22 6.73483 22 7.00004C22 7.26526 21.8946 7.51961 21.7071 7.70715C21.5196 7.89468 21.2652 8.00004 21 8.00004H3.414L7.707 12.293C7.88916 12.4816 7.98995 12.7342 7.98767 12.9964C7.9854 13.2586 7.88023 13.5095 7.69482 13.6949C7.50941 13.8803 7.2586 13.9854 6.9964 13.9877C6.7342 13.99 6.4816 13.8892 6.293 13.707L0.293 7.70704Z" fill="white"/>
</svg>
