<svg width="24" height="24" viewBox="0 0 24 24" fill="none" xmlns="http://www.w3.org/2000/svg">
<g id="interface/browse">
<path id="Vector" d="M15.716 4.35401C14.6906 3.32891 13.4068 2.60053 12.0009 2.24614C10.595 1.89176 9.11933 1.9246 7.73056 2.34118C6.34179 2.75776 5.09169 3.54254 4.11294 4.61225C3.13418 5.68195 2.46327 6.99667 2.17139 8.41689C1.87952 9.83712 1.97758 11.3099 2.45516 12.6789C2.93274 14.0479 3.77202 15.262 4.88396 16.1925C5.99589 17.123 7.33899 17.7352 8.77073 17.964C10.2025 18.1927 11.6694 18.0297 13.016 17.492L16.596 21.073C17.1891 21.6667 17.9938 22.0004 18.8331 22.0008C19.6723 22.0012 20.4773 21.6682 21.071 21.075C21.6647 20.4819 21.9984 19.6772 21.9988 18.8379C21.9992 17.9987 21.6661 17.1937 21.073 16.6L17.493 13.02C18.0758 11.5599 18.2181 9.961 17.9023 8.42088C17.5865 6.88077 16.8264 5.46692 15.716 4.35401ZM10.034 16.069C8.63826 16.0695 7.28555 15.586 6.20633 14.7009C5.12712 13.8158 4.38817 12.5839 4.11538 11.2151C3.8426 9.8463 4.05286 8.42525 4.71034 7.19408C5.36782 5.96291 6.43184 4.99779 7.72112 4.46316C9.0104 3.92853 10.4452 3.85746 11.781 4.26207C13.1168 4.66669 14.2709 5.52194 15.0469 6.68211C15.8228 7.84229 16.1724 9.23561 16.0363 10.6247C15.9001 12.0137 15.2865 13.3126 14.3 14.3C13.741 14.8621 13.0762 15.3078 12.344 15.6114C11.6118 15.915 10.8267 16.0706 10.034 16.069ZM19.659 18.012C19.8681 18.2323 19.9829 18.5255 19.9789 18.8292C19.975 19.1329 19.8526 19.4231 19.6378 19.6378C19.423 19.8526 19.1329 19.975 18.8292 19.979C18.5255 19.9829 18.2323 19.8681 18.012 19.659L14.826 16.473C15.1402 16.2421 15.4377 15.9892 15.716 15.716C15.9891 15.4377 16.2421 15.1403 16.473 14.826L19.659 18.012ZM11.035 14C11.035 14.2652 10.9296 14.5196 10.7421 14.7071C10.5546 14.8947 10.3002 15 10.035 15C8.71858 14.9984 7.45654 14.4749 6.5256 13.5441C5.59467 12.6134 5.07084 11.3514 5.06899 10.035C5.06817 9.76797 5.17273 9.51139 5.35996 9.32098C5.54719 9.13057 5.80197 9.0217 6.06899 9.01801C6.19938 9.01589 6.3289 9.03971 6.45 9.08809C6.57111 9.13646 6.68139 9.20843 6.77444 9.2998C6.86748 9.39117 6.94144 9.50013 6.99201 9.62034C7.04257 9.74054 7.06874 9.8696 7.06899 10V10.035C7.06978 10.8213 7.38256 11.5752 7.93865 12.1311C8.49474 12.687 9.24869 12.9995 10.035 13C10.3002 13 10.5546 13.1054 10.7421 13.2929C10.9296 13.4804 11.035 13.7348 11.035 14Z" fill="#979797" fill-opacity="0.39"/>
</g>
</svg>
