<svg width="22" height="22" viewBox="0 0 22 22" fill="none" xmlns="http://www.w3.org/2000/svg">
<path id="Vector" d="M22 10.9889C21.9993 13.0788 21.4033 15.1252 20.2817 16.8887C19.1602 18.6521 17.5595 20.0595 15.667 20.9462C13.7746 21.8329 11.6687 22.1621 9.59594 21.8953C7.52316 21.6286 5.56927 20.7769 3.96299 19.4399L3.70699 19.6959C3.5195 19.8835 3.26519 19.9889 2.99999 19.9889C2.86854 19.9894 2.73833 19.9635 2.61699 19.9129C2.43431 19.8372 2.27818 19.709 2.16836 19.5445C2.05854 19.3801 1.99994 19.1867 1.99999 18.9889V16.9889C1.99999 16.7237 2.10535 16.4694 2.29289 16.2818C2.48042 16.0943 2.73478 15.9889 2.99999 15.9889H4.99999C5.19774 15.989 5.39104 16.0477 5.55545 16.1575C5.71986 16.2674 5.848 16.4236 5.92367 16.6063C5.99934 16.789 6.01915 16.99 5.98058 17.184C5.94201 17.3779 5.8468 17.5561 5.70699 17.6959L5.38499 18.0179C6.97872 19.2902 8.95727 19.9835 10.9966 19.9843C13.0358 19.9851 15.0149 19.2933 16.6096 18.0222C18.2043 16.7512 19.3201 14.9762 19.7741 12.9881C20.2281 11 19.9935 8.91669 19.1087 7.07936C18.2239 5.24204 16.7413 3.75967 14.9039 2.8751C13.0665 1.99053 10.9831 1.7562 8.99505 2.21049C7.00702 2.66479 5.2322 3.78077 3.96135 5.37563C2.69049 6.97049 1.99895 8.94967 1.99999 10.9889C2.00011 11.5934 2.0604 12.1964 2.17999 12.7889C2.23304 13.0489 2.18066 13.3192 2.03438 13.5405C1.8881 13.7618 1.65991 13.9159 1.39999 13.9689C1.14008 14.022 0.869744 13.9696 0.648451 13.8233C0.427158 13.6771 0.273038 13.4489 0.219994 13.1889C-0.0858296 11.6828 -0.0726633 10.1294 0.258645 8.62865C0.589953 7.12795 1.23205 5.71332 2.14354 4.47595C3.05504 3.23859 4.2157 2.20596 5.55071 1.44462C6.88572 0.683287 8.36545 0.210143 9.89451 0.0556919C11.4236 -0.0987588 12.968 0.0689113 14.4283 0.547894C15.8886 1.02688 17.2323 1.80654 18.3729 2.83663C19.5134 3.86671 20.4254 5.12436 21.0502 6.5285C21.6749 7.93264 21.9984 9.4521 22 10.9889ZM11 3.98895C10.7348 3.98895 10.4804 4.0943 10.2929 4.28184C10.1054 4.46938 9.99999 4.72373 9.99999 4.98895V10.9889C9.99999 11.2542 10.1054 11.5085 10.2929 11.6961C10.4804 11.8836 10.7348 11.9889 11 11.9889H16C16.2652 11.9889 16.5196 11.8836 16.7071 11.6961C16.8946 11.5085 17 11.2542 17 10.9889C17 10.7237 16.8946 10.4694 16.7071 10.2818C16.5196 10.0943 16.2652 9.98895 16 9.98895H12V4.98895C12 4.72373 11.8946 4.46938 11.7071 4.28184C11.5196 4.0943 11.2652 3.98895 11 3.98895Z" fill="white"/>
</svg>
