<svg width="27" height="22" viewBox="0 0 27 22" fill="none" xmlns="http://www.w3.org/2000/svg">
<g id="interface/eye-off">
<path id="Vector" d="M2.57962 19.898C2.79059 20.0699 3.07669 20.1664 3.375 20.1664C3.67331 20.1664 3.95941 20.0699 4.17037 19.898L7.77037 16.9647C9.48398 17.8514 11.4701 18.3258 13.5 18.3333C18.3656 18.3333 22.7554 15.5833 24.6803 11.3171C24.7736 11.1125 24.7736 10.8874 24.6803 10.6828C23.9227 8.96113 22.6742 7.41068 21.0375 6.15904L24.426 3.39804C24.5334 3.31348 24.6192 3.21233 24.6781 3.10049C24.7371 2.98865 24.7681 2.86837 24.7694 2.74665C24.7707 2.62494 24.7422 2.50423 24.6857 2.39158C24.6291 2.27892 24.5456 2.17658 24.4399 2.09051C24.3343 2.00444 24.2087 1.93637 24.0704 1.89028C23.9322 1.84419 23.784 1.821 23.6347 1.82206C23.4853 1.82311 23.3377 1.8484 23.2004 1.89644C23.0632 1.94448 22.939 2.01432 22.8353 2.10187L19.2352 5.0352C17.52 4.14766 15.5318 3.67323 13.5 3.66662C8.63437 3.66662 4.24462 6.41662 2.31975 10.6828C2.2264 10.8874 2.2264 11.1125 2.31975 11.3171C3.07892 13.0392 4.32938 14.5897 5.96812 15.8409L2.57962 18.6019C2.36872 18.7738 2.25024 19.0069 2.25024 19.25C2.25024 19.493 2.36872 19.7261 2.57962 19.898ZM19.4242 7.46895C20.7377 8.44622 21.762 9.6535 22.4201 11C20.7574 14.3522 17.2946 16.5 13.5 16.5C12.0692 16.4947 10.6633 16.1938 9.414 15.6255L11.2286 14.1469C11.9144 14.4838 12.6992 14.6634 13.5 14.6666C14.6935 14.6666 15.8381 14.2803 16.682 13.5927C17.5259 12.905 18 11.9724 18 11C17.9961 10.3475 17.7757 9.70797 17.3621 9.1492L19.4242 7.46895ZM11.3344 11.4684C11.281 11.3159 11.2526 11.1584 11.25 11C11.25 10.5137 11.4871 10.0474 11.909 9.70359C12.331 9.35977 12.9033 9.16662 13.5 9.16662C13.6945 9.16877 13.8878 9.19189 14.0749 9.23537L11.3344 11.4684ZM15.6656 10.5315C15.719 10.684 15.7474 10.8415 15.75 11C15.75 11.4862 15.5129 11.9525 15.091 12.2963C14.669 12.6401 14.0967 12.8333 13.5 12.8333C13.3055 12.8311 13.1122 12.808 12.9251 12.7645L15.6656 10.5315ZM4.57987 11C6.24262 7.6477 9.70537 5.49995 13.5 5.49995C14.9308 5.50521 16.3367 5.80609 17.586 6.37445L15.7714 7.85304C15.0856 7.51607 14.3008 7.33648 13.5 7.33329C12.3065 7.33329 11.1619 7.71959 10.318 8.40723C9.4741 9.09486 9 10.0275 9 11C9.00392 11.6524 9.22432 12.2919 9.63787 12.8507L7.57575 14.531C6.26228 13.5537 5.23795 12.3464 4.57987 11Z" fill="white"/>
</g>
</svg>
